<svg version="1.1" id="Layer_1" xmlns="http://www.w3.org/2000/svg" xmlns:xlink="http://www.w3.org/1999/xlink" x="0px" y="0px"
	 width="100%" viewBox="0 0 623 160" enable-background="new 0 0 623 160" xml:space="preserve">
<path fill="#020202" opacity="1.000000" stroke="none" 
	d="
M457.000000,161.000000 
	C304.666656,161.000000 152.833328,161.000000 1.000000,161.000000 
	C1.000000,107.666664 1.000000,54.333332 1.000000,1.000000 
	C208.666672,1.000000 416.333344,1.000000 624.000000,1.000000 
	C624.000000,54.333332 624.000000,107.666664 624.000000,161.000000 
	C568.500000,161.000000 513.000000,161.000000 457.000000,161.000000 
M29.483389,45.502869 
	C29.483389,70.266747 29.483389,95.030617 29.483389,119.717300 
	C33.862476,119.717300 37.623398,119.717300 41.918091,119.717300 
	C41.918091,107.388931 41.918091,95.342255 41.918091,83.075890 
	C48.109840,83.075890 53.765339,83.260559 59.399929,82.997490 
	C62.190880,82.867188 63.488289,83.912811 64.716255,86.274017 
	C70.078110,96.584122 75.616302,106.803413 81.191422,117.000481 
	C81.833672,118.175194 83.033913,119.756584 84.099503,119.859024 
	C87.779404,120.212791 91.514236,119.995262 95.999252,119.995262 
	C88.494316,106.359764 81.481659,93.618668 74.406174,80.763420 
	C75.946053,79.979118 77.135788,79.429893 78.271683,78.785736 
	C88.525642,72.970772 92.873558,63.501762 91.125679,50.839466 
	C89.676636,40.341969 82.670074,31.825392 71.459000,30.460405 
	C57.712524,28.786722 43.731583,29.038778 29.483435,28.442865 
	C29.483435,34.549686 29.483435,39.527458 29.483389,45.502869 
M454.041748,119.812019 
	C464.019501,122.872444 473.164459,121.183212 481.592316,114.054955 
	C481.936462,123.079315 481.508514,131.162537 473.005981,135.067444 
	C462.416382,139.930893 453.282654,136.543930 445.532898,128.199722 
	C443.497375,130.519440 441.562927,132.723984 438.916504,135.739899 
	C443.050446,138.567413 446.406708,141.643738 450.348053,143.426315 
	C469.469879,152.074646 494.418945,143.699631 493.326080,116.428314 
	C492.546509,96.974045 493.174072,77.463394 493.173706,57.977898 
	C493.173676,56.205803 493.173676,54.433708 493.173676,52.476097 
	C489.474579,52.476097 486.373413,52.476097 483.108215,52.476097 
	C482.706360,54.625107 482.325928,56.659489 481.895966,58.958744 
	C481.199371,58.456783 480.785187,58.214874 480.437500,57.899582 
	C467.520599,46.186123 448.319885,49.703667 440.518494,65.226685 
	C436.180603,73.858070 435.447357,83.096024 436.463928,92.467812 
	C437.724945,104.093033 442.006531,114.036766 454.041748,119.812019 
M221.065857,115.618713 
	C221.558868,115.171478 222.128723,114.784515 222.533737,114.268234 
	C234.250214,99.333046 234.027145,82.854080 227.897980,66.116951 
	C223.931091,55.284470 213.202713,49.339359 201.851395,51.423508 
	C196.271133,52.448067 191.056808,55.465752 185.631454,57.599339 
	C185.478516,56.582317 185.186386,54.639675 184.871170,52.543495 
	C181.493744,52.543495 178.253433,52.543495 174.855164,52.543495 
	C174.855164,83.802742 174.855164,114.809471 174.855164,145.673126 
	C178.803284,145.673126 182.380127,145.673126 186.240616,145.673126 
	C186.240616,135.104004 186.240616,124.865295 186.240616,114.446716 
	C199.873245,123.120033 210.301865,123.556435 221.065857,115.618713 
M522.301270,50.382496 
	C522.301270,41.651237 522.301270,32.919979 522.301270,24.329529 
	C518.052246,24.329529 514.482422,24.329529 511.149292,24.329529 
	C511.149292,56.375355 511.149292,88.086403 511.149292,119.677742 
	C515.054321,119.677742 518.626526,119.677742 522.304138,119.677742 
	C522.304138,104.868546 522.290283,90.385818 522.309631,75.903130 
	C522.320435,67.783043 529.506714,61.089794 538.324707,60.930134 
	C547.752930,60.759426 552.125244,65.016563 552.245972,75.023972 
	C552.404541,88.174599 552.291016,101.328499 552.294312,114.480995 
	C552.294800,116.250153 552.294434,118.019310 552.294434,119.761063 
	C556.513245,119.761063 560.109863,119.761063 563.889343,119.761063 
	C563.889343,103.403656 564.441956,87.263893 563.729004,71.180237 
	C563.058228,56.046864 551.981689,48.202381 537.117920,51.845879 
	C531.920959,53.119793 527.183105,56.266560 522.296875,58.529686 
	C522.296875,56.327225 522.296875,53.830288 522.301270,50.382496 
M127.495651,51.849407 
	C119.482849,53.373749 113.670441,58.034882 109.349335,64.726631 
	C103.933250,73.114075 103.330650,82.478752 103.885345,92.090805 
	C104.658340,105.485741 112.908127,116.435112 125.027519,119.989090 
	C138.710205,124.001480 151.750122,119.682205 160.098358,108.146812 
	C157.856750,106.366447 155.604630,104.577744 153.417587,102.840736 
	C143.791748,111.967438 135.013229,114.190155 126.602707,109.902748 
	C119.492371,106.278137 115.084389,97.951416 115.976166,89.311829 
	C130.825699,89.311829 145.727158,89.311829 160.905792,89.311829 
	C160.905792,85.592751 161.136597,82.278046 160.867920,79.004326 
	C159.257965,59.387184 146.272995,48.519943 127.495651,51.849407 
M318.738434,54.763744 
	C303.362793,38.363106 270.697021,39.084335 256.161377,55.973804 
	C243.447784,70.746155 242.194611,93.814232 253.576660,109.710663 
	C264.460266,124.910950 287.059235,130.603882 305.792236,122.864342 
	C331.708374,112.157097 338.552216,77.660545 318.738434,54.763744 
M369.053955,60.925285 
	C375.656433,61.745968 379.251312,65.825279 380.633423,71.903183 
	C384.587006,71.903183 388.192749,71.903183 391.934143,71.903183 
	C391.839233,70.630478 391.883789,69.618416 391.673889,68.662201 
	C389.511322,58.809757 381.851593,52.648659 370.010437,51.185413 
	C358.375580,49.747658 347.248047,54.717712 342.994110,63.252090 
	C338.886322,71.493240 341.194397,80.262199 349.387878,84.656578 
	C353.995850,87.127945 359.278290,88.351807 364.275177,90.084877 
	C368.486115,91.545341 373.054138,92.340088 376.873230,94.482742 
	C382.928864,97.880196 382.423340,106.073631 376.372314,109.539886 
	C366.093597,115.427917 353.441620,110.588745 349.945038,99.061996 
	C348.779633,99.061996 347.483704,99.061996 346.187775,99.061996 
	C343.882141,99.061996 341.576477,99.061996 339.296234,99.061996 
	C338.903503,105.786774 341.773682,111.813614 347.709747,115.779922 
	C358.094604,122.718842 369.250275,122.837311 380.547791,118.433502 
	C388.248138,115.431900 392.524628,109.535591 392.643860,101.200485 
	C392.764587,92.761574 387.842407,87.733772 380.369629,84.854965 
	C377.439392,83.726128 374.440460,82.763863 371.439789,81.832100 
	C366.852844,80.407784 362.047577,79.509766 357.679199,77.600685 
	C351.438904,74.873543 350.830383,66.584213 356.792236,63.303310 
	C360.056152,61.507130 364.353119,61.588062 369.053955,60.925285 
M609.916687,119.016006 
	C609.916687,116.398087 609.916687,113.780159 609.916687,110.922020 
	C608.680664,110.976456 607.886475,111.012489 607.092102,111.046249 
	C598.588379,111.407585 597.030640,109.955978 597.015930,101.600357 
	C597.003113,94.280106 597.013367,86.959816 597.013367,79.639542 
	C597.013367,73.554619 597.013306,67.469704 597.013306,60.970119 
	C601.577393,60.970119 605.490845,60.970119 609.456177,60.970119 
	C609.456177,57.951050 609.456177,55.372696 609.456177,52.387184 
	C605.293762,52.387184 601.372925,52.387184 597.017151,52.387184 
	C597.017151,46.746113 597.017151,41.500748 597.017151,36.303547 
	C592.867798,36.303547 589.180054,36.303547 585.120605,36.303547 
	C585.120605,41.771519 585.120605,46.860645 585.120605,52.310471 
	C580.986145,52.310471 577.229126,52.310471 573.233887,52.310471 
	C573.233887,55.412033 573.233887,58.131516 573.233887,61.393867 
	C577.328552,61.393867 581.200562,61.393867 585.284973,61.393867 
	C585.284973,66.584770 585.229797,71.235825 585.296204,75.885155 
	C585.450378,86.689850 585.319031,97.514603 585.972656,108.290619 
	C586.412781,115.544418 590.742981,120.154289 597.318054,120.808632 
	C601.337402,121.208633 605.494568,120.223839 609.916687,119.016006 
M420.291016,105.497421 
	C420.291016,87.907997 420.291016,70.318565 420.291016,52.650322 
	C416.166412,52.650322 412.621765,52.650322 408.836151,52.650322 
	C408.836151,64.143021 408.836121,75.288101 408.836121,86.433182 
	C408.836121,97.522270 408.836151,108.611366 408.836151,119.716354 
	C412.947235,119.716354 416.523315,119.716354 420.291016,119.716354 
	C420.291016,115.121155 420.291016,110.808273 420.291016,105.497421 
M421.525085,34.469513 
	C420.397308,28.985863 418.012390,27.093174 413.103607,27.928017 
	C409.059998,28.615719 407.741821,31.391916 407.957520,35.131317 
	C408.161255,38.663349 410.262878,40.575268 413.636139,40.893463 
	C417.799835,41.286221 420.733002,39.675137 421.525085,34.469513 
z"/>
<path fill="#F9F9F9" opacity="1.000000" stroke="none" 
	d="
M29.483412,45.004047 
	C29.483435,39.527458 29.483435,34.549686 29.483435,28.442865 
	C43.731583,29.038778 57.712524,28.786722 71.459000,30.460405 
	C82.670074,31.825392 89.676636,40.341969 91.125679,50.839466 
	C92.873558,63.501762 88.525642,72.970772 78.271683,78.785736 
	C77.135788,79.429893 75.946053,79.979118 74.406174,80.763420 
	C81.481659,93.618668 88.494316,106.359764 95.999252,119.995262 
	C91.514236,119.995262 87.779404,120.212791 84.099503,119.859024 
	C83.033913,119.756584 81.833672,118.175194 81.191422,117.000481 
	C75.616302,106.803413 70.078110,96.584122 64.716255,86.274017 
	C63.488289,83.912811 62.190880,82.867188 59.399929,82.997490 
	C53.765339,83.260559 48.109840,83.075890 41.918091,83.075890 
	C41.918091,95.342255 41.918091,107.388931 41.918091,119.717300 
	C37.623398,119.717300 33.862476,119.717300 29.483389,119.717300 
	C29.483389,95.030617 29.483389,70.266747 29.483412,45.004047 
M73.059555,42.216797 
	C63.116428,36.520321 52.374477,39.913074 41.900246,38.840057 
	C41.900246,50.543468 41.900246,61.601757 41.900246,73.144279 
	C48.841236,73.144279 55.604843,73.272575 62.361507,73.110764 
	C70.240814,72.922073 76.093277,69.122192 78.250343,62.608532 
	C80.724358,55.137798 79.975182,48.218300 73.059555,42.216797 
z"/>
<path fill="#F9F9F9" opacity="1.000000" stroke="none" 
	d="
M453.681763,119.648972 
	C442.006531,114.036766 437.724945,104.093033 436.463928,92.467812 
	C435.447357,83.096024 436.180603,73.858070 440.518494,65.226685 
	C448.319885,49.703667 467.520599,46.186123 480.437500,57.899582 
	C480.785187,58.214874 481.199371,58.456783 481.895966,58.958744 
	C482.325928,56.659489 482.706360,54.625107 483.108215,52.476097 
	C486.373413,52.476097 489.474579,52.476097 493.173676,52.476097 
	C493.173676,54.433708 493.173676,56.205803 493.173706,57.977898 
	C493.174072,77.463394 492.546509,96.974045 493.326080,116.428314 
	C494.418945,143.699631 469.469879,152.074646 450.348053,143.426315 
	C446.406708,141.643738 443.050446,138.567413 438.916504,135.739899 
	C441.562927,132.723984 443.497375,130.519440 445.532898,128.199722 
	C453.282654,136.543930 462.416382,139.930893 473.005981,135.067444 
	C481.508514,131.162537 481.936462,123.079315 481.592316,114.054955 
	C473.164459,121.183212 464.019501,122.872444 453.681763,119.648972 
M481.132385,69.876991 
	C476.343597,58.959984 457.549561,56.709827 451.432739,69.308876 
	C445.920959,80.661736 445.842285,92.601234 451.861633,103.848457 
	C456.518890,112.550598 469.769104,114.254738 476.929596,107.373238 
	C479.054779,105.330856 481.337219,102.259987 481.474060,99.555466 
	C481.961060,89.931274 481.554382,80.261871 481.132385,69.876991 
z"/>
<path fill="#FBFBFB" opacity="1.000000" stroke="none" 
	d="
M220.777313,115.837189 
	C210.301865,123.556435 199.873245,123.120033 186.240616,114.446716 
	C186.240616,124.865295 186.240616,135.104004 186.240616,145.673126 
	C182.380127,145.673126 178.803284,145.673126 174.855164,145.673126 
	C174.855164,114.809471 174.855164,83.802742 174.855164,52.543495 
	C178.253433,52.543495 181.493744,52.543495 184.871170,52.543495 
	C185.186386,54.639675 185.478516,56.582317 185.631454,57.599339 
	C191.056808,55.465752 196.271133,52.448067 201.851395,51.423508 
	C213.202713,49.339359 223.931091,55.284470 227.897980,66.116951 
	C234.027145,82.854080 234.250214,99.333046 222.533737,114.268234 
	C222.128723,114.784515 221.558868,115.171478 220.777313,115.837189 
M219.996078,85.558907 
	C219.973068,84.229645 220.056839,82.888390 219.908997,81.573158 
	C219.171417,75.011177 217.637436,68.656342 212.159286,64.367683 
	C206.562149,59.985897 200.173767,59.696312 193.862259,62.670006 
	C188.071869,65.398170 185.455109,69.944710 185.952087,76.690948 
	C186.487915,83.964500 186.296906,91.317276 185.990112,98.617302 
	C185.814835,102.788261 187.674301,105.614426 190.572479,107.985687 
	C199.303421,115.129227 212.462311,112.350060 216.878693,101.903313 
	C218.878448,97.172974 219.014572,91.654778 219.996078,85.558907 
z"/>
<path fill="#FBFBFB" opacity="1.000000" stroke="none" 
	d="
M522.299072,50.857925 
	C522.296875,53.830288 522.296875,56.327225 522.296875,58.529686 
	C527.183105,56.266560 531.920959,53.119793 537.117920,51.845879 
	C551.981689,48.202381 563.058228,56.046864 563.729004,71.180237 
	C564.441956,87.263893 563.889343,103.403656 563.889343,119.761063 
	C560.109863,119.761063 556.513245,119.761063 552.294434,119.761063 
	C552.294434,118.019310 552.294800,116.250153 552.294312,114.480995 
	C552.291016,101.328499 552.404541,88.174599 552.245972,75.023972 
	C552.125244,65.016563 547.752930,60.759426 538.324707,60.930134 
	C529.506714,61.089794 522.320435,67.783043 522.309631,75.903130 
	C522.290283,90.385818 522.304138,104.868546 522.304138,119.677742 
	C518.626526,119.677742 515.054321,119.677742 511.149292,119.677742 
	C511.149292,88.086403 511.149292,56.375355 511.149292,24.329529 
	C514.482422,24.329529 518.052246,24.329529 522.301270,24.329529 
	C522.301270,32.919979 522.301270,41.651237 522.299072,50.857925 
z"/>
<path fill="#FAFAFA" opacity="1.000000" stroke="none" 
	d="
M127.907524,51.744839 
	C146.272995,48.519943 159.257965,59.387184 160.867920,79.004326 
	C161.136597,82.278046 160.905792,85.592751 160.905792,89.311829 
	C145.727158,89.311829 130.825699,89.311829 115.976166,89.311829 
	C115.084389,97.951416 119.492371,106.278137 126.602707,109.902748 
	C135.013229,114.190155 143.791748,111.967438 153.417587,102.840736 
	C155.604630,104.577744 157.856750,106.366447 160.098358,108.146812 
	C151.750122,119.682205 138.710205,124.001480 125.027519,119.989090 
	C112.908127,116.435112 104.658340,105.485741 103.885345,92.090805 
	C103.330650,82.478752 103.933250,73.114075 109.349335,64.726631 
	C113.670441,58.034882 119.482849,53.373749 127.907524,51.744839 
M122.419762,64.828552 
	C118.431992,69.012474 116.196754,73.904518 116.003174,79.810074 
	C127.316513,79.810074 138.251083,79.810074 149.428543,79.810074 
	C148.966156,72.571678 147.616760,65.793854 140.718933,62.325092 
	C134.663528,59.279964 128.480164,60.036461 122.419762,64.828552 
z"/>
<path fill="#F7F7F7" opacity="1.000000" stroke="none" 
	d="
M318.966187,55.038055 
	C338.552216,77.660545 331.708374,112.157097 305.792236,122.864342 
	C287.059235,130.603882 264.460266,124.910950 253.576660,109.710663 
	C242.194611,93.814232 243.447784,70.746155 256.161377,55.973804 
	C270.697021,39.084335 303.362793,38.363106 318.966187,55.038055 
M292.803436,118.373451 
	C308.019318,116.413956 317.777435,108.211853 321.656616,94.121101 
	C326.337036,77.119934 318.155640,59.135029 302.958282,53.017250 
	C285.581421,46.022091 265.540985,51.956882 257.615570,66.901337 
	C251.051559,79.278656 251.273224,91.953506 258.718842,103.878654 
	C266.341492,116.087303 278.334259,119.390587 292.803436,118.373451 
z"/>
<path fill="#F8F8F8" opacity="1.000000" stroke="none" 
	d="
M368.619080,60.873909 
	C364.353119,61.588062 360.056152,61.507130 356.792236,63.303310 
	C350.830383,66.584213 351.438904,74.873543 357.679199,77.600685 
	C362.047577,79.509766 366.852844,80.407784 371.439789,81.832100 
	C374.440460,82.763863 377.439392,83.726128 380.369629,84.854965 
	C387.842407,87.733772 392.764587,92.761574 392.643860,101.200485 
	C392.524628,109.535591 388.248138,115.431900 380.547791,118.433502 
	C369.250275,122.837311 358.094604,122.718842 347.709747,115.779922 
	C341.773682,111.813614 338.903503,105.786774 339.296234,99.061996 
	C341.576477,99.061996 343.882141,99.061996 346.187775,99.061996 
	C347.483704,99.061996 348.779633,99.061996 349.945038,99.061996 
	C353.441620,110.588745 366.093597,115.427917 376.372314,109.539886 
	C382.423340,106.073631 382.928864,97.880196 376.873230,94.482742 
	C373.054138,92.340088 368.486115,91.545341 364.275177,90.084877 
	C359.278290,88.351807 353.995850,87.127945 349.387878,84.656578 
	C341.194397,80.262199 338.886322,71.493240 342.994110,63.252090 
	C347.248047,54.717712 358.375580,49.747658 370.010437,51.185413 
	C381.851593,52.648659 389.511322,58.809757 391.673889,68.662201 
	C391.883789,69.618416 391.839233,70.630478 391.934143,71.903183 
	C388.192749,71.903183 384.587006,71.903183 380.633423,71.903183 
	C379.251312,65.825279 375.656433,61.745968 368.619080,60.873909 
z"/>
<path fill="#F7F7F7" opacity="1.000000" stroke="none" 
	d="
M609.753296,119.438492 
	C605.494568,120.223839 601.337402,121.208633 597.318054,120.808632 
	C590.742981,120.154289 586.412781,115.544418 585.972656,108.290619 
	C585.319031,97.514603 585.450378,86.689850 585.296204,75.885155 
	C585.229797,71.235825 585.284973,66.584770 585.284973,61.393867 
	C581.200562,61.393867 577.328552,61.393867 573.233887,61.393867 
	C573.233887,58.131516 573.233887,55.412033 573.233887,52.310471 
	C577.229126,52.310471 580.986145,52.310471 585.120605,52.310471 
	C585.120605,46.860645 585.120605,41.771519 585.120605,36.303547 
	C589.180054,36.303547 592.867798,36.303547 597.017151,36.303547 
	C597.017151,41.500748 597.017151,46.746113 597.017151,52.387184 
	C601.372925,52.387184 605.293762,52.387184 609.456177,52.387184 
	C609.456177,55.372696 609.456177,57.951050 609.456177,60.970119 
	C605.490845,60.970119 601.577393,60.970119 597.013306,60.970119 
	C597.013306,67.469704 597.013367,73.554619 597.013367,79.639542 
	C597.013367,86.959816 597.003113,94.280106 597.015930,101.600357 
	C597.030640,109.955978 598.588379,111.407585 607.092102,111.046249 
	C607.886475,111.012489 608.680664,110.976456 609.916687,110.922020 
	C609.916687,113.780159 609.916687,116.398087 609.753296,119.438492 
z"/>
<path fill="#FDFDFD" opacity="1.000000" stroke="none" 
	d="
M420.291016,105.996407 
	C420.291016,110.808273 420.291016,115.121155 420.291016,119.716354 
	C416.523315,119.716354 412.947235,119.716354 408.836151,119.716354 
	C408.836151,108.611366 408.836121,97.522270 408.836121,86.433182 
	C408.836121,75.288101 408.836151,64.143021 408.836151,52.650322 
	C412.621765,52.650322 416.166412,52.650322 420.291016,52.650322 
	C420.291016,70.318565 420.291016,87.907997 420.291016,105.996407 
z"/>
<path fill="#F5F5F5" opacity="1.000000" stroke="none" 
	d="
M421.514832,34.843914 
	C420.733002,39.675137 417.799835,41.286221 413.636139,40.893463 
	C410.262878,40.575268 408.161255,38.663349 407.957520,35.131317 
	C407.741821,31.391916 409.059998,28.615719 413.103607,27.928017 
	C418.012390,27.093174 420.397308,28.985863 421.514832,34.843914 
z"/>
<path fill="#020202" opacity="1.000000" stroke="none" 
	d="
M73.352432,42.452507 
	C79.975182,48.218300 80.724358,55.137798 78.250343,62.608532 
	C76.093277,69.122192 70.240814,72.922073 62.361507,73.110764 
	C55.604843,73.272575 48.841236,73.144279 41.900246,73.144279 
	C41.900246,61.601757 41.900246,50.543468 41.900246,38.840057 
	C52.374477,39.913074 63.116428,36.520321 73.352432,42.452507 
z"/>
<path fill="#040404" opacity="1.000000" stroke="none" 
	d="
M481.309204,70.243286 
	C481.554382,80.261871 481.961060,89.931274 481.474060,99.555466 
	C481.337219,102.259987 479.054779,105.330856 476.929596,107.373238 
	C469.769104,114.254738 456.518890,112.550598 451.861633,103.848457 
	C445.842285,92.601234 445.920959,80.661736 451.432739,69.308876 
	C457.549561,56.709827 476.343597,58.959984 481.309204,70.243286 
z"/>
<path fill="#030303" opacity="1.000000" stroke="none" 
	d="
M219.996109,86.026459 
	C219.014572,91.654778 218.878448,97.172974 216.878693,101.903313 
	C212.462311,112.350060 199.303421,115.129227 190.572479,107.985687 
	C187.674301,105.614426 185.814835,102.788261 185.990112,98.617302 
	C186.296906,91.317276 186.487915,83.964500 185.952087,76.690948 
	C185.455109,69.944710 188.071869,65.398170 193.862259,62.670006 
	C200.173767,59.696312 206.562149,59.985897 212.159286,64.367683 
	C217.637436,68.656342 219.171417,75.011177 219.908997,81.573158 
	C220.056839,82.888390 219.973068,84.229645 219.996109,86.026459 
z"/>
<path fill="#030303" opacity="1.000000" stroke="none" 
	d="
M122.694824,64.576096 
	C128.480164,60.036461 134.663528,59.279964 140.718933,62.325092 
	C147.616760,65.793854 148.966156,72.571678 149.428543,79.810074 
	C138.251083,79.810074 127.316513,79.810074 116.003174,79.810074 
	C116.196754,73.904518 118.431992,69.012474 122.694824,64.576096 
z"/>
<path fill="#050505" opacity="1.000000" stroke="none" 
	d="
M292.377197,118.443237 
	C278.334259,119.390587 266.341492,116.087303 258.718842,103.878654 
	C251.273224,91.953506 251.051559,79.278656 257.615570,66.901337 
	C265.540985,51.956882 285.581421,46.022091 302.958282,53.017250 
	C318.155640,59.135029 326.337036,77.119934 321.656616,94.121101 
	C317.777435,108.211853 308.019318,116.413956 292.377197,118.443237 
M273.190094,71.964989 
	C271.795105,74.648613 270.400146,77.332230 268.800018,80.774551 
	C266.920654,90.388954 271.886169,99.668121 280.620117,102.863113 
	C289.649567,106.166191 299.522339,102.514671 304.169312,94.153297 
	C308.697845,86.004997 306.663879,75.739799 299.370728,69.935486 
	C291.657593,63.796936 281.364136,64.517769 273.190094,71.964989 
z"/>
<path fill="#F9F9F9" opacity="1.000000" stroke="none" 
	d="
M273.645508,71.736992 
	C281.364136,64.517769 291.657593,63.796936 299.370728,69.935486 
	C306.663879,75.739799 308.697845,86.004997 304.169312,94.153297 
	C299.522339,102.514671 289.649567,106.166191 280.620117,102.863113 
	C271.886169,99.668121 266.920654,90.388954 269.248169,80.476837 
	C270.583344,81.734619 271.307922,83.415070 272.389404,84.820969 
	C275.068390,88.303574 279.823669,89.266296 283.554626,87.108063 
	C287.540802,84.802162 288.913055,81.184135 287.605286,76.896797 
	C286.282013,72.558723 283.039948,70.499168 278.456635,70.892349 
	C276.840637,71.030983 275.248535,71.447403 273.645508,71.736992 
z"/>
<path fill="#070707" opacity="1.000000" stroke="none" 
	d="
M273.417786,71.850990 
	C275.248535,71.447403 276.840637,71.030983 278.456635,70.892349 
	C283.039948,70.499168 286.282013,72.558723 287.605286,76.896797 
	C288.913055,81.184135 287.540802,84.802162 283.554626,87.108063 
	C279.823669,89.266296 275.068390,88.303574 272.389404,84.820969 
	C271.307922,83.415070 270.583344,81.734619 269.350769,80.097481 
	C270.400146,77.332230 271.795105,74.648613 273.417786,71.850990 
z"/>
</svg>